<svg data-v-0dd9719b="" version="1.0" xmlns="http://www.w3.org/2000/svg" xmlns:xlink="http://www.w3.org/1999/xlink" width="100%" height="100%" viewBox="0 0 340.000000 250.000000" preserveAspectRatio="xMidYMid meet" color-interpolation-filters="sRGB" style="margin: auto;"> <rect data-v-0dd9719b="" x="0" y="0" width="100%" height="100%" fill="#fff" fill-opacity="1" class="background"></rect> <rect data-v-0dd9719b="" x="0" y="0" width="100%" height="100%" fill="url(#watermark)" fill-opacity="1" class="watermarklayer"></rect> <g data-v-0dd9719b="" fill="#333" class="icon-text-wrapper icon-svg-group iconsvg" transform="translate(49.44000244140625,94.87951850891113)"><g class="iconsvg-imagesvg" transform="translate(0,0)"><g><rect fill="#333" fill-opacity="0" stroke-width="2" x="0" y="0" width="60" height="60.24096385542169" class="image-rect"></rect> <svg x="0" y="0" width="60" height="60.24096385542169" filtersec="colorsb1616136387" class="image-svg-svg primary" style="overflow: visible;"><svg xmlns="http://www.w3.org/2000/svg" viewBox="0 0 99.60000610351562 100"><path d="M0 58.52l30.54 1.74V39.74L0 41.48zM63.74 37.85l-28.28 1.61v21.08l28.28 1.61z" fill="#00b0d8"></path><path d="M63.74 92.8V66.38l-28.28-2.17v22.91z" fill="#02035e"></path><path d="M68.66 33.24l30.94-2.38V0L68.66 6.21z" fill="#64daee"></path><path d="M30.54 63.83L0 61.48V80l30.54 6.13zM68.66 66.76v27L99.6 100V69.14z" fill="#02035e"></path><path d="M35.46 12.88v22.91l28.28-2.17V7.2zM30.54 36.17v-22.3L0 20v18.52z" fill="#64daee"></path><path d="M99.6 35.8l-30.94 1.77v24.86L99.6 64.2z" fill="#00b0d8"></path></svg></svg> <!----></g></g> <g transform="translate(67,6.93048095703125)"><g data-gra="path-name" fill-rule="" class="tp-name iconsvg-namesvg"><g transform="scale(1)"><g><path d="M33.48-3.12L35.52-12.18 39.06-12.18 39-2.28Q33.06 1.08 25.74 1.08L25.74 1.08Q15.72 1.08 9.39-5.22 3.06-11.52 3.06-22.08L3.06-22.08Q3.06-32.52 9.54-38.91 16.02-45.3 25.86-45.3L25.86-45.3Q32.52-45.3 38.46-42.06L38.46-42.06 38.46-32.04 34.98-32.04 32.94-41.22Q30.06-42.66 26.7-42.66L26.7-42.66Q19.68-42.66 15.21-37.26 10.74-31.86 10.74-22.08L10.74-22.08Q10.74-12.18 15.06-6.93 19.38-1.68 26.58-1.68L26.58-1.68Q30.42-1.68 33.48-3.12L33.48-3.12ZM57.78-2.52L57.78-2.52 62.4-2.52Q70.02-2.52 74.1-7.65 78.18-12.78 78.18-22.08L78.18-22.08Q78.18-31.62 74.19-36.69 70.2-41.76 62.88-41.76L62.88-41.76 57.78-41.76Q57.72-35.82 57.72-23.52L57.72-23.52 57.72-21.42Q57.72-8.52 57.78-2.52ZM44.7-42.06L44.7-44.22 63.9-44.22Q73.98-44.22 79.86-38.4 85.74-32.58 85.74-22.14L85.74-22.14Q85.74-11.76 79.44-5.88 73.14 0 62.7 0L62.7 0 44.7 0 44.7-2.16 50.64-2.82Q50.76-8.64 50.76-21.36L50.76-21.36 50.76-23.52Q50.76-35.52 50.64-41.4L50.64-41.4 44.7-42.06ZM108.54-41.76L108.54-41.76 104.7-41.76Q104.64-35.82 104.64-23.64L104.64-23.64 104.64-20.22 108.24-20.22Q114.06-20.22 116.82-23.13 119.58-26.04 119.58-31.14L119.58-31.14Q119.58-41.76 108.54-41.76ZM107.82-17.7L107.82-17.7 104.64-17.7Q104.64-7.98 104.7-2.82L104.7-2.82 111.12-2.16 111.12 0 91.62 0 91.62-2.16 97.56-2.82Q97.68-8.64 97.68-20.58L97.68-20.58 97.68-23.64Q97.68-35.52 97.56-41.4L97.56-41.4 91.62-42.06 91.62-44.22 109.32-44.22Q117.9-44.22 122.19-40.77 126.48-37.32 126.48-31.14L126.48-31.14Q126.48-25.14 121.92-21.42 117.36-17.7 107.82-17.7ZM177.18-44.22L177.18-42.06 171.18-41.4Q171.06-35.58 171.06-23.64L171.06-23.64 171.06-20.58Q171.06-8.76 171.18-2.82L171.18-2.82 177.18-2.16 177.18 0 158.22 0 158.22-2.16 164.04-2.82Q164.16-8.52 164.16-21.42L164.16-21.42 143.94-21.42Q143.94-8.64 144.06-2.82L144.06-2.82 149.94-2.16 149.94 0 130.98 0 130.98-2.16 136.92-2.82Q136.98-8.64 136.98-20.58L136.98-20.58 136.98-23.64Q136.98-35.46 136.92-41.4L136.92-41.4 130.98-42.06 130.98-44.22 149.94-44.22 149.94-42.06 144.06-41.4Q143.94-35.7 143.94-23.88L143.94-23.88 164.16-23.88Q164.16-35.58 164.04-41.4L164.04-41.4 158.22-42.06 158.22-44.22 177.18-44.22Z" transform="translate(-3.059999942779541, 45.29999923706055)"></path></g> <!----> <!----> <!----> <!----> <!----> <!----> <!----></g></g> <!----></g></g><defs v-gra="od"></defs></svg>